# https://github.com/mikedh/trimesh
v 376.00000000 133.00000000 0.00000000
v 334.00000000 172.00000000 0.00000000
v 327.00000000 186.00000000 0.00000000
v 323.00000000 200.00000000 0.00000000
v 321.00000000 223.00000000 0.00000000
v 331.00000000 262.00000000 0.00000000
v 354.00000000 300.00000000 0.00000000
v 380.00000000 324.00000000 0.00000000
v 402.00000000 339.00000000 0.00000000
v 432.00000000 345.00000000 0.00000000
v 478.00000000 342.00000000 0.00000000
v 499.00000000 334.00000000 0.00000000
v 516.00000000 322.00000000 0.00000000
v 531.00000000 315.00000000 0.00000000
v 543.00000000 298.00000000 0.00000000
v 553.00000000 290.00000000 0.00000000
v 564.00000000 276.00000000 0.00000000
v 572.00000000 250.00000000 0.00000000
v 571.00000000 223.00000000 0.00000000
v 568.00000000 214.00000000 0.00000000
v 557.00000000 198.00000000 0.00000000
v 545.00000000 188.00000000 0.00000000
v 548.00000000 185.00000000 0.00000000
v 547.00000000 181.00000000 0.00000000
v 501.00000000 139.00000000 0.00000000
v 479.00000000 128.00000000 0.00000000
v 434.00000000 116.00000000 0.00000000
v 412.00000000 116.00000000 0.00000000
v 395.00000000 121.00000000 0.00000000
v 376.00000000 133.00000000 50.00000000
v 334.00000000 172.00000000 50.00000000
v 327.00000000 186.00000000 50.00000000
v 323.00000000 200.00000000 50.00000000
v 321.00000000 223.00000000 50.00000000
v 331.00000000 262.00000000 50.00000000
v 354.00000000 300.00000000 50.00000000
v 380.00000000 324.00000000 50.00000000
v 402.00000000 339.00000000 50.00000000
v 432.00000000 345.00000000 50.00000000
v 478.00000000 342.00000000 50.00000000
v 499.00000000 334.00000000 50.00000000
v 516.00000000 322.00000000 50.00000000
v 531.00000000 315.00000000 50.00000000
v 543.00000000 298.00000000 50.00000000
v 553.00000000 290.00000000 50.00000000
v 564.00000000 276.00000000 50.00000000
v 572.00000000 250.00000000 50.00000000
v 571.00000000 223.00000000 50.00000000
v 568.00000000 214.00000000 50.00000000
v 557.00000000 198.00000000 50.00000000
v 545.00000000 188.00000000 50.00000000
v 548.00000000 185.00000000 50.00000000
v 547.00000000 181.00000000 50.00000000
v 501.00000000 139.00000000 50.00000000
v 479.00000000 128.00000000 50.00000000
v 434.00000000 116.00000000 50.00000000
v 412.00000000 116.00000000 50.00000000
v 395.00000000 121.00000000 50.00000000
f 28 29 1
f 26 27 28
f 24 25 26
f 22 23 24
f 20 21 22
f 18 19 20
f 16 17 18
f 13 14 15
f 11 12 13
f 9 10 11
f 7 8 9
f 5 6 7
f 3 4 5
f 1 2 3
f 26 28 1
f 22 24 26
f 18 20 22
f 15 16 18
f 11 13 15
f 7 9 11
f 3 5 7
f 26 1 3
f 18 22 26
f 11 15 18
f 3 7 11
f 18 26 3
f 3 11 18
f 30 58 57
f 57 56 55
f 55 54 53
f 53 52 51
f 51 50 49
f 49 48 47
f 47 46 45
f 44 43 42
f 42 41 40
f 40 39 38
f 38 37 36
f 36 35 34
f 34 33 32
f 32 31 30
f 30 57 55
f 55 53 51
f 51 49 47
f 47 45 44
f 44 42 40
f 40 38 36
f 36 34 32
f 32 30 55
f 55 51 47
f 47 44 40
f 40 36 32
f 32 55 47
f 47 40 32
f 30 31 1
f 1 31 2
f 31 32 2
f 2 32 3
f 32 33 3
f 3 33 4
f 33 34 4
f 4 34 5
f 34 35 5
f 5 35 6
f 35 36 6
f 6 36 7
f 36 37 7
f 7 37 8
f 37 38 8
f 8 38 9
f 38 39 9
f 9 39 10
f 39 40 10
f 10 40 11
f 40 41 11
f 11 41 12
f 41 42 12
f 12 42 13
f 42 43 13
f 13 43 14
f 43 44 14
f 14 44 15
f 44 45 15
f 15 45 16
f 45 46 16
f 16 46 17
f 46 47 17
f 17 47 18
f 47 48 18
f 18 48 19
f 48 49 19
f 19 49 20
f 49 50 20
f 20 50 21
f 50 51 21
f 21 51 22
f 51 52 22
f 22 52 23
f 52 53 23
f 23 53 24
f 53 54 24
f 24 54 25
f 54 55 25
f 25 55 26
f 55 56 26
f 26 56 27
f 56 57 27
f 27 57 28
f 58 30 29
f 29 30 1
f 57 58 28
f 28 58 29

